<svg width="30" height="30" viewBox="0 0 30 30" fill="none" xmlns="http://www.w3.org/2000/svg">
<path d="M22.4296 6.47293H21.4201V7.47406H20.4105V8.47519H21.4201V9.47633H22.4296V8.47519H23.4391V7.47406H22.4296V6.47293Z" fill="white"/>
<path d="M25.4581 3.46954H24.4486V4.47067H23.439V5.47181H24.4486V6.47294H25.4581V5.47181H26.4676V4.47067H25.4581V3.46954Z" fill="white"/>
<path d="M4.76272 23.9927H3.75318V24.9939H2.74365V25.995H3.75318V26.9961H4.76272V25.995H5.77225V24.9939H4.76272V23.9927Z" fill="white"/>
<path d="M7.79134 20.9893H6.78181V21.9905H5.77228V22.9916H6.78181V23.9927H7.79134V22.9916H8.80087V21.9905H7.79134V20.9893Z" fill="white"/>
<path d="M29.5795 0.666345C29.2242 0.313947 28.6902 0.17479 28.1132 0.286416L24.6939 0.943158C20.414 1.76609 16.0856 3.87697 12.147 7.05156L6.36587 0.444595C5.89441 -0.0930129 5.07215 -0.151579 4.53054 0.315449L1.42269 2.98947C0.881584 3.456 0.823031 4.27242 1.29297 4.80953L7.34965 11.7314C3.93491 15.7564 1.67457 20.2069 0.810411 24.6284L0.0265099 28.6385C-0.0537479 29.0474 0.0502339 29.4309 0.311198 29.6901C0.514619 29.8924 0.794764 30 1.10368 30C1.19151 30 1.28136 29.991 1.37222 29.9735L5.4159 29.1961C10.0618 28.3026 14.8833 25.8133 19.0471 22.1752L22.4008 25.8303L22.2468 25.9629C21.4059 26.6868 21.315 27.9542 22.0454 28.7876C22.3972 29.1906 22.8884 29.4329 23.4275 29.4709C23.4764 29.4744 23.5254 29.4759 23.5738 29.4759C24.0604 29.4759 24.5238 29.3052 24.8928 28.9874L27.4732 26.7663C28.3141 26.0435 28.4045 24.7761 27.6746 23.9422C27.3227 23.5392 26.8316 23.2969 26.2925 23.2589C25.7559 23.2213 25.2325 23.3925 24.8267 23.7424L24.8211 23.7474L21.3534 19.9687C25.5036 15.6268 28.3222 10.5105 29.2989 5.51182L29.9617 2.12099C30.0747 1.54834 29.9349 1.01874 29.5795 0.666345ZM26.1481 24.255C26.1729 24.255 26.1976 24.2555 26.2218 24.2575C26.4919 24.2765 26.7372 24.3972 26.9134 24.5984C27.2778 25.0154 27.2329 25.6491 26.8124 26.0105L24.2321 28.2315C23.8116 28.5924 23.1736 28.5484 22.8081 28.1314C22.4432 27.7144 22.4886 27.0807 22.9091 26.7188L25.4889 24.4983C25.6732 24.3401 25.9049 24.255 26.1481 24.255ZM5.22409 28.2135L1.18091 28.9909C1.08702 29.0089 1.03604 28.9929 1.02494 28.9823C1.01434 28.9718 0.999194 28.9208 1.01686 28.8287L1.80076 24.8186C2.61192 20.6695 4.8122 16.3135 8.01696 12.4942L9.25767 13.9123C9.31824 13.9819 9.38891 14.039 9.45453 14.1025C7.7565 16.7751 7.62627 19.5317 9.16681 21.0594C9.88106 21.7677 10.8754 22.1106 11.9996 22.1106C13.5946 22.1106 15.4501 21.4118 17.1401 20.0963L18.3702 21.4368C14.3432 24.9538 9.69227 27.354 5.22409 28.2135ZM13.9904 16.6634L14.589 17.3157L16.4647 19.3605C14.0045 21.2551 11.2353 21.6941 9.88106 20.3521C8.71303 19.1938 8.88515 16.9097 10.2717 14.6902C10.3035 14.7067 10.3374 14.7167 10.3697 14.7322C10.4686 14.7778 10.5665 14.8248 10.6705 14.8609C10.827 14.917 10.9865 14.963 11.1495 14.994C12.2201 15.2008 13.2261 15.7904 13.9904 16.6634ZM23.1337 25.14L19.8007 21.5079L19.8012 21.5074L14.7409 15.9942C14.6864 15.9321 14.6274 15.875 14.5708 15.815C14.5108 15.7514 14.4527 15.6858 14.3906 15.6253C14.2973 15.5347 14.1993 15.4496 14.1009 15.3655C14.0711 15.3399 14.0434 15.3119 14.0131 15.2869C14.0121 15.2859 14.0116 15.2854 14.0105 15.2844C13.8844 15.1803 13.7546 15.0821 13.6219 14.989C13.6183 14.9865 13.6153 14.984 13.6118 14.9815C12.9238 14.501 12.1495 14.1671 11.3424 14.0119C11.3408 14.0114 11.3393 14.0109 11.3378 14.0109C11.1813 13.9804 11.0284 13.9318 10.8795 13.8678C10.8669 13.8628 10.8553 13.8563 10.8426 13.8507C10.6957 13.7842 10.5524 13.7036 10.4146 13.6045L10.2748 13.5039C10.1849 13.4283 10.0991 13.3472 10.0204 13.2576L8.0114 10.961L8.0109 10.9615L2.05567 4.15379C1.95219 4.03515 1.96532 3.84844 2.08444 3.74533L5.19178 1.0718C5.24529 1.02525 5.31343 1.00222 5.38157 1.00222C5.46385 1.00222 5.54613 1.03526 5.60266 1.10034L13.5674 10.2031C13.6456 10.2922 13.7137 10.3878 13.7763 10.4859L13.852 10.6246C13.9257 10.7603 13.9828 10.8994 14.0282 11.0401C14.0388 11.0736 14.0504 11.1066 14.0595 11.1407C14.0731 11.1902 14.0837 11.2408 14.0938 11.2909C14.1135 11.3945 14.1307 11.4991 14.1362 11.6062C14.2024 12.9092 14.7359 14.1946 15.648 15.2363L18.7498 18.6171L24.0286 24.3696L23.1337 25.14ZM15.0791 11.0646C15.0564 10.9525 15.0216 10.8443 14.9873 10.7357C14.9767 10.7037 14.9716 10.6707 14.96 10.6386C16.7969 9.87676 18.4757 9.96435 19.4156 10.8969C20.676 12.1468 20.3474 14.7277 18.6867 17.0614L16.4026 14.5721C16.119 14.2477 15.8792 13.8948 15.6869 13.5229C15.3669 12.9032 15.1796 12.2319 15.1453 11.5567C15.1362 11.3905 15.113 11.2268 15.0791 11.0646ZM28.9718 1.92927L28.3091 5.32011C27.3717 10.114 24.6682 15.0346 20.676 19.2283L19.3782 17.8142C21.4669 15.002 21.7991 11.844 20.1298 10.1886C18.8765 8.9457 16.7408 8.79103 14.483 9.75312C14.432 9.68504 14.3876 9.61246 14.3311 9.54738L12.8072 7.80591C16.6111 4.74596 20.7779 2.71616 24.8862 1.92577L28.305 1.26853C28.5513 1.22147 28.7492 1.25851 28.8653 1.37364C28.9819 1.48877 29.0193 1.6865 28.9718 1.92927Z" fill="white"/>
</svg>
