<svg width="1035" height="972" viewBox="0 0 1035 972" fill="none" xmlns="http://www.w3.org/2000/svg">
<path d="M678.539 885.495C664.815 879.097 650.885 871.336 629.229 853.228C614.835 841.144 605.576 831.512 598.423 822.873C587.749 809.978 581.488 798.431 571.152 783.453C560.869 768.556 546.493 751.313 521.807 730.661C505.385 716.861 491.366 707.289 478.84 700.21C460.005 689.581 445.507 684.766 431.878 678.412C418.161 672.019 404.236 664.262 382.593 646.165C368.215 634.094 358.95 624.458 351.798 615.82C341.129 602.929 334.875 591.388 324.545 576.415C314.274 561.527 299.886 544.275 275.225 523.643C258.797 509.839 244.783 500.272 232.258 493.192C213.417 482.559 198.925 477.749 185.296 471.394C171.571 464.995 157.648 457.24 136.009 439.146C121.627 427.072 112.377 417.449 105.237 408.82C94.5927 395.95 88.3256 384.398 78.0068 369.435C67.7302 354.542 53.3709 337.315 28.7083 316.681L15.9493 331.879C30.3195 343.955 39.5966 353.577 46.7147 362.212C57.394 375.099 63.6438 386.637 73.9612 401.599C84.2159 416.485 98.5926 433.727 123.248 454.343C139.682 468.163 153.719 477.726 166.208 484.799C185.06 495.442 199.553 500.228 213.187 506.6C226.924 513.008 240.835 520.755 262.463 538.838C276.85 550.929 286.121 560.547 293.251 569.191C303.93 582.078 310.192 593.625 320.515 608.606C330.792 623.499 345.163 640.736 369.831 661.362C386.264 675.182 400.308 684.751 412.797 691.824C431.643 702.462 446.141 707.251 459.776 713.625C473.507 720.028 487.418 727.774 509.046 745.858C523.445 757.959 532.718 767.577 539.87 776.241C550.537 789.117 556.817 800.692 567.141 815.661C577.411 830.549 591.798 847.8 616.467 868.426C632.9 882.247 646.943 891.814 659.451 898.903C678.309 909.551 692.801 914.349 706.461 920.729C720.196 927.137 734.113 934.888 755.781 953.005L768.54 937.808C752.089 923.984 738.059 914.403 725.55 907.338C706.683 896.679 692.198 891.876 678.539 885.495Z" fill="#61A5C2" fill-opacity="0.13"/>
<path d="M767.161 779.936C753.437 773.539 739.507 765.777 717.851 747.669C703.457 735.585 694.198 725.954 687.045 717.314C676.371 704.42 670.11 692.872 659.775 677.894C649.492 662.996 635.116 645.753 610.43 625.101C594.008 611.302 579.988 601.73 567.463 594.651C548.628 584.022 534.13 579.207 520.501 572.852C506.783 566.46 492.859 558.703 471.215 540.606C456.838 528.535 447.573 518.899 440.421 510.26C429.752 497.37 423.498 485.828 413.168 470.855C402.897 455.967 388.51 438.714 363.848 418.083C347.42 404.279 333.407 394.711 320.881 387.632C302.04 376.999 287.548 372.188 273.919 365.834C260.194 359.435 246.271 351.679 224.632 333.586C210.25 321.512 201.001 311.889 193.861 303.26C183.216 290.39 176.949 278.838 166.631 263.874C156.355 248.981 141.996 231.752 117.333 211.12L104.574 226.318C118.944 238.394 128.221 248.016 135.339 256.651C146.018 269.538 152.268 281.076 162.585 296.038C172.839 310.925 187.216 328.167 211.872 348.782C228.305 362.603 242.342 372.166 254.83 379.24C273.683 389.883 288.176 394.669 301.81 401.041C315.546 407.449 329.459 415.194 351.085 433.279C365.473 445.37 374.744 454.987 381.874 463.631C392.553 476.519 398.815 488.066 409.138 503.046C419.415 517.939 433.786 535.177 458.454 555.803C474.886 569.623 488.93 579.192 501.419 586.265C520.265 596.904 534.763 601.693 548.398 608.066C562.129 614.47 576.041 622.215 597.668 640.299C612.067 652.4 621.34 662.019 628.493 670.682C639.159 683.559 645.439 695.134 655.763 710.102C666.034 724.99 680.42 742.241 705.089 762.867C721.522 776.688 735.565 786.256 748.072 793.345C766.93 803.993 781.423 808.791 795.082 815.172C808.817 821.579 822.735 829.329 844.402 847.447L857.161 832.25C840.71 818.426 826.681 808.846 814.171 801.78C795.305 791.121 780.82 786.316 767.161 779.936Z" fill="#61A5C2" fill-opacity="0.13"/>
<path d="M855.783 674.378C842.06 667.98 828.129 660.218 806.473 642.11C792.079 630.026 782.82 620.395 775.667 611.755C764.993 598.861 758.732 587.314 748.397 572.335C738.115 557.437 723.738 540.195 699.052 519.543C682.63 505.743 668.61 496.171 656.086 489.091C637.251 478.462 622.752 473.648 609.123 467.294C595.405 460.901 581.481 453.144 559.837 435.047C545.46 422.976 536.195 413.34 529.043 404.702C518.374 391.811 512.12 380.27 501.79 365.296C491.52 350.407 477.131 333.156 452.47 312.524C436.042 298.72 422.029 289.153 409.504 282.073C390.663 271.439 376.17 266.63 362.541 260.275C348.816 253.876 334.893 246.121 313.254 228.027C298.872 215.953 289.623 206.33 282.483 197.701C271.838 184.831 265.571 173.279 255.253 158.315C244.977 143.422 230.617 126.195 205.955 105.561L193.195 120.76C207.565 132.836 216.842 142.459 223.96 151.093C234.64 163.98 240.89 175.517 251.207 190.48C261.461 205.366 275.838 222.608 300.494 243.224C316.927 257.045 330.964 266.607 343.453 273.68C362.306 284.324 376.799 289.109 390.433 295.481C404.169 301.89 418.081 309.635 439.708 327.719C454.096 339.811 463.367 349.428 470.497 358.072C481.176 370.959 487.438 382.506 497.761 397.487C508.038 412.38 522.408 429.617 547.077 450.243C563.509 464.063 577.553 473.632 590.042 480.705C608.889 491.343 623.386 496.132 637.022 502.506C650.752 508.909 664.665 516.655 686.291 534.739C700.691 546.84 709.963 556.458 717.116 565.122C727.782 577.998 734.063 589.572 744.386 604.542C754.657 619.43 769.044 636.681 793.712 657.307C810.146 671.128 824.189 680.695 836.696 687.784C855.555 698.432 870.047 703.23 883.706 709.61C897.441 716.018 911.359 723.768 933.026 741.886L945.786 726.688C929.335 712.864 915.306 703.284 902.797 696.217C883.927 685.562 869.442 680.759 855.783 674.378Z" fill="#61A5C2" fill-opacity="0.13"/>
<path d="M991.42 590.66C972.55 580.002 958.064 575.199 944.405 568.819C930.682 562.422 916.751 554.66 895.095 536.552C880.701 524.468 871.442 514.836 864.29 506.196C853.616 493.302 847.354 481.755 837.019 466.776C826.737 451.878 812.36 434.636 787.674 413.984C771.252 400.185 757.233 390.613 744.708 383.533C725.873 372.904 711.374 368.09 697.745 361.735C684.027 355.343 670.103 347.585 648.46 329.488C634.082 317.418 624.817 307.781 617.666 299.142C606.997 286.252 600.742 274.711 590.413 259.737C580.142 244.849 565.754 227.597 541.092 206.966C524.664 193.161 510.651 183.594 498.126 176.514C479.285 165.88 464.792 161.071 451.163 154.717C437.438 148.318 423.515 140.562 401.876 122.469C387.494 110.394 378.245 100.771 371.106 92.1418C360.461 79.2718 354.193 67.7204 343.876 52.7558C333.596 37.8614 319.236 20.6337 294.574 0.000457088L281.815 15.1979C296.185 27.2746 305.462 36.8967 312.58 45.531C323.26 58.4183 329.509 69.956 339.827 84.9177C350.081 99.8042 364.458 117.046 389.114 137.662C405.547 151.483 419.584 161.046 432.073 168.118C450.926 178.762 465.418 183.547 479.053 189.918C492.79 196.327 506.701 204.073 528.328 222.157C542.716 234.249 551.987 243.866 559.117 252.51C569.796 265.397 576.057 276.945 586.381 291.925C596.657 306.818 611.028 324.055 635.697 344.681C652.129 358.501 666.173 368.07 678.662 375.143C697.509 385.781 712.006 390.571 725.642 396.943C739.373 403.346 753.285 411.093 774.911 429.177C789.31 441.278 798.583 450.896 805.736 459.56C816.402 472.436 822.683 484.01 833.006 498.98C843.277 513.868 857.664 531.119 882.332 551.745C898.766 565.566 912.808 575.134 925.316 582.222C944.175 592.87 958.667 597.668 972.327 604.048C986.062 610.455 999.979 618.206 1021.65 636.324L1034.4 621.128C1017.96 607.308 1003.93 597.727 991.42 590.66Z" fill="#61A5C2" fill-opacity="0.13"/>
</svg>
