<svg width="46" height="47" viewBox="0 0 46 47" fill="none" xmlns="http://www.w3.org/2000/svg">
<path d="M44.1459 0.928712C44.0337 0.473487 43.6922 0.127075 43.2649 0.0280422L43.2571 0.0263916C43.1854 0.00988611 43.1028 -2.41941e-05 43.0186 -3.89358e-05C42.6474 -0.000103911 42.3152 0.179611 42.0984 0.463252L42.0968 0.464901C39.4482 3.77128 35.9779 6.26111 32.0182 7.5881L31.8638 7.6326C29.2234 8.54255 26.1527 9.19184 22.9791 9.45022L22.8419 9.45844C19.3626 9.59473 16.0969 10.4139 13.1165 11.7938L13.2881 11.7229C8.14126 14.6709 4.70629 20.339 4.70515 26.8553C4.70513 26.9576 4.70667 27.0599 4.70822 27.1621L4.70822 27.1473C4.72217 27.647 4.75483 28.1402 4.80777 28.6317C5.04758 30.6075 5.56189 32.4004 6.31328 34.0499L6.26963 33.9443C3.86901 37.2128 1.79581 40.9448 0.207553 44.944L0.0936538 45.2689C0.0343684 45.4124 3.04856e-05 45.579 -4.08219e-07 45.7555C-0.000119941 46.4383 0.52377 46.9925 1.1694 46.9926C1.64972 46.9927 2.06147 46.6877 2.24245 46.2506L2.24557 46.2424C3.74958 42.4377 5.50925 39.1609 7.58857 36.1447L7.49653 36.2849C9.26916 39.1797 11.7203 41.4644 14.6175 42.9179L14.722 42.9658C16.9378 44.0366 19.5296 44.6621 22.2587 44.6626C22.3008 44.6626 22.3413 44.6626 22.3819 44.6626L22.3757 44.6626C25.3215 44.6483 28.124 44.0171 30.6787 42.8812L30.5352 42.9372C38.7419 39.0051 44.5757 30.8899 45.6316 21.2351L45.6426 21.1081C45.8722 19.2445 46.0035 17.0905 46.0039 14.9035C46.0048 9.92595 45.3257 5.11483 44.0617 0.5708L44.1459 0.928712ZM43.3253 20.7399C42.3818 29.641 37.0985 37.0388 29.7948 40.5786L29.6482 40.6412C27.5677 41.6189 25.1395 42.1891 22.5866 42.1887C20.093 42.1882 17.7196 41.6452 15.5677 40.6635L15.683 40.7097C12.8606 39.3024 10.5842 37.0837 9.06883 34.3357L9.03142 34.2614C14.2053 27.9752 20.9319 24.8444 30.5557 23.8549C31.1483 23.789 31.6069 23.2646 31.607 22.6247C31.6071 21.9419 31.0832 21.3876 30.4376 21.3875C30.4001 21.3875 30.3627 21.3891 30.3253 21.3924L30.33 21.3924C21.536 21.7356 13.6724 25.6744 7.96048 31.85L7.95424 31.8566C7.5739 30.8389 7.28249 29.653 7.13455 28.421L7.12677 28.3467C7.08006 27.9245 7.05206 27.5023 7.04122 27.0801C7.03967 26.9992 7.03813 26.9019 7.03815 26.8063C7.03911 21.2679 9.95463 16.4509 14.2499 13.976L14.3216 13.9381C16.895 12.7708 19.8815 12.0391 23.0161 11.9192L23.0598 11.9176C26.564 11.6329 29.8125 10.9424 32.9051 9.88737L32.6057 9.97638C36.4235 8.65761 39.6973 6.54379 42.3988 3.80313L42.3894 3.81137C43.2044 7.1431 43.6716 10.9662 43.6709 14.9064C43.6706 16.9631 43.5423 18.9884 43.2956 20.9725L43.319 20.7383L43.3253 20.7399Z" fill="#A3B18A" fill-opacity="0.35"/>
</svg>
