<svg width="98" height="83" viewBox="0 0 98 83" fill="none" xmlns="http://www.w3.org/2000/svg">
<path d="M80.7233 0.886148C80.1613 0.406226 79.2906 0.459204 78.7658 1.00618C78.2425 1.55279 78.2725 2.39178 78.8284 2.88068C78.9157 2.95782 80.9649 4.79837 80.3334 7.57627C79.8441 9.72759 77.7244 12.7206 71.2349 16.109C69.5263 13.9072 67.1582 12.0999 64.2858 10.9247C53.4186 6.47866 38.9655 11.4152 25.6186 24.1351C-0.317621 48.8475 16.3239 80.9697 16.4947 81.2906C16.7689 81.8069 17.3688 82.0822 17.9723 81.9692C18.0046 81.9637 18.0367 81.9568 18.0683 81.9487C18.6247 81.8064 19.0465 81.3526 19.1216 80.8032C19.1456 80.6275 21.7097 63.1581 39.2816 57.3724C60.7642 50.3007 73.5075 38.7115 74.2431 25.5777C74.3864 23.0195 73.8229 20.5493 72.6725 18.3426C78.7787 15.1148 82.2661 11.6612 83.066 8.02491C84.0053 3.75303 80.8583 1.00132 80.7233 0.886148ZM71.4614 25.5037C70.7907 37.471 58.7538 48.1716 38.4338 54.8619C24.7474 59.3666 19.3751 70.3542 17.4053 76.3886C14.06 67.5866 8.08167 44.553 27.5611 25.9929C34.8005 19.0956 42.3076 14.6113 49.2449 12.837C54.2817 11.5488 59.0207 11.6891 63.1335 13.3731C65.4229 14.3096 67.3118 15.6781 68.7119 17.3407C66.6147 18.3032 64.1632 19.2919 61.2871 20.2975C31.7756 30.618 26.5913 50.9953 26.3852 51.8574C26.2141 52.5756 26.6805 53.2764 27.4289 53.4228C27.647 53.4658 27.8656 53.4566 28.0692 53.4045C28.5647 53.2778 28.9758 52.8975 29.0993 52.3892C29.1107 52.3396 30.3543 47.3858 35.0318 41.2958C39.347 35.678 47.561 27.9063 62.1871 22.7919C65.1755 21.7468 67.8459 20.6716 70.2041 19.5683C71.1333 21.3689 71.5804 23.3865 71.4614 25.5037Z" fill="#588157" fill-opacity="0.53"/>
</svg>
