<svg width="1123" height="671" viewBox="0 0 1123 671" fill="none" xmlns="http://www.w3.org/2000/svg">
<path d="M0.878906 65.499C28.4189 116.197 45.536 144.67 56.0674 167.106C66.6207 189.59 70.5862 206.06 71.8555 232.793C72.4845 246.042 77.4282 263.685 86.1592 282.65C94.8867 301.608 107.384 321.857 123.088 340.315C154.503 377.241 198.692 406.939 251.161 404.934C277.576 403.924 292.539 409.881 301.409 419.86C310.251 429.808 312.938 443.653 315.057 458.139C317.184 472.679 318.742 487.88 325.211 500.819C331.655 513.709 342.99 524.377 364.766 529.754C386.57 535.138 401.848 532.341 413.928 525.116C426.04 517.871 434.993 506.145 444.085 493.524C462.241 468.321 480.859 439.67 526.212 437.645C548.8 436.636 565.675 439.062 579.257 443.639C592.841 448.216 603.103 454.936 612.471 462.477C631.224 477.571 646.308 495.838 677.356 507.123C692.773 512.726 712.393 510.19 734.513 503.661C756.62 497.136 781.108 486.66 806.23 476.494C831.335 466.335 857.063 456.49 881.591 451.267C906.117 446.043 929.502 445.427 949.896 453.785C970.242 462.123 983.586 473.474 992.817 486.649C1002.04 499.816 1007.14 514.778 1011.04 530.307C1012.99 538.07 1014.64 545.988 1016.36 553.894C1018.07 561.804 1019.86 569.707 1022.06 577.463C1026.48 592.974 1032.6 607.875 1043.3 621.013C1064.78 647.372 1084.59 659.393 1099 664.832C1106.2 667.552 1112.07 668.627 1116.12 669.024C1118.14 669.223 1119.72 669.252 1120.78 669.231C1121.31 669.221 1121.71 669.199 1121.98 669.18C1122.12 669.17 1122.22 669.161 1122.28 669.154C1122.32 669.151 1122.34 669.148 1122.36 669.146C1122.37 669.146 1122.37 669.145 1122.37 669.145H1122.38C1122.38 669.148 1122.38 669.191 1122.44 669.641C1122.5 670.123 1122.5 670.136 1122.5 670.137H1122.5C1122.5 670.137 1122.49 670.137 1122.49 670.138C1122.49 670.138 1122.48 670.14 1122.47 670.141C1122.45 670.143 1122.42 670.146 1122.38 670.149C1122.31 670.157 1122.2 670.166 1122.06 670.177C1121.77 670.198 1121.35 670.221 1120.8 670.231C1119.7 670.252 1118.09 670.222 1116.02 670.02C1111.89 669.615 1105.94 668.52 1098.65 665.768C1084.06 660.261 1064.1 648.126 1042.52 621.644C1031.7 608.36 1025.53 593.317 1021.1 577.737C1018.88 569.948 1017.1 562.018 1015.38 554.105C1013.66 546.188 1012.02 538.293 1010.07 530.55C1006.18 515.065 1001.12 500.241 991.998 487.223C982.883 474.213 969.696 462.98 949.518 454.711C929.388 446.462 906.234 447.041 881.8 452.244C857.367 457.447 831.712 467.261 806.605 477.421C781.516 487.574 756.964 498.077 734.796 504.62C712.641 511.16 692.751 513.782 677.015 508.062C645.758 496.702 630.448 478.23 611.844 463.256C602.533 455.762 592.375 449.114 578.938 444.586C565.498 440.057 548.751 437.639 526.257 438.644C481.445 440.644 463.085 468.861 444.896 494.108C435.816 506.713 426.755 518.608 414.441 525.974C402.096 533.358 386.538 536.16 364.526 530.725C342.486 525.282 330.9 514.436 324.316 501.267C317.758 488.147 316.182 472.744 314.066 458.284C311.943 443.77 309.279 430.219 300.661 420.524C292.071 410.861 277.465 404.929 251.199 405.933C198.307 407.954 153.849 378.015 122.326 340.963C106.561 322.432 94.0151 302.106 85.251 283.068C76.4903 264.038 71.4938 246.265 70.8564 232.841C69.5929 206.229 65.6558 189.888 55.1621 167.531C44.6465 145.128 27.5721 116.733 0 65.9756L0.878906 65.499ZM11.8799 41.5C39.0639 91.8703 55.9602 120.16 66.3555 142.451C76.7724 164.789 80.6857 181.154 81.9385 207.714C83.1817 234.069 101.491 277.842 132.509 314.54C163.518 351.227 207.133 380.729 258.92 378.737C284.995 377.734 299.768 383.654 308.525 393.57C317.254 403.454 319.905 417.211 321.997 431.603C324.097 446.049 325.635 461.151 332.021 474.007C338.381 486.813 349.569 497.41 371.061 502.752C392.581 508.101 407.659 505.322 419.58 498.145C431.534 490.947 440.371 479.298 449.346 466.759C467.267 441.719 485.645 413.25 530.417 411.238C552.714 410.236 569.372 412.646 582.779 417.193C596.189 421.742 606.319 428.419 615.566 435.911C634.079 450.909 648.965 469.056 679.611 480.268C694.825 485.834 714.189 483.315 736.023 476.828C757.845 470.345 782.015 459.938 806.813 449.837C831.594 439.743 856.99 429.961 881.202 424.771C905.413 419.582 928.497 418.971 948.63 427.275C968.714 435.56 981.886 446.838 990.998 459.929C1000.1 473.01 1005.14 487.876 1008.99 503.304C1010.91 511.017 1012.54 518.883 1014.24 526.738C1015.93 534.598 1017.69 542.45 1019.87 550.156C1024.22 565.567 1030.26 580.371 1040.83 593.423C1062.03 619.611 1081.58 631.554 1095.8 636.957C1102.92 639.659 1108.7 640.729 1112.7 641.123C1114.7 641.32 1116.25 641.348 1117.3 641.328C1117.82 641.318 1118.22 641.296 1118.49 641.276C1118.62 641.267 1118.72 641.257 1118.79 641.251C1118.82 641.248 1118.84 641.245 1118.86 641.243C1118.87 641.242 1118.87 641.242 1118.87 641.241C1118.88 641.241 1118.88 641.241 1118.88 641.241C1118.88 641.242 1118.88 641.266 1118.94 641.737C1119 642.233 1119 642.233 1119 642.233H1119C1119 642.234 1118.99 642.234 1118.99 642.234C1118.99 642.235 1118.98 642.236 1118.97 642.237C1118.95 642.24 1118.92 642.242 1118.88 642.246C1118.81 642.253 1118.7 642.263 1118.56 642.273C1118.28 642.294 1117.86 642.318 1117.32 642.328C1116.23 642.349 1114.64 642.319 1112.6 642.118C1108.52 641.716 1102.65 640.628 1095.45 637.893C1081.05 632.421 1061.35 620.363 1040.05 594.052C1029.37 580.854 1023.28 565.907 1018.9 550.428C1016.72 542.689 1014.95 534.81 1013.26 526.949C1011.56 519.083 1009.94 511.239 1008.02 503.546C1004.18 488.162 999.181 473.434 990.178 460.5C981.181 447.575 968.165 436.415 948.249 428.199C928.382 420.004 905.529 420.58 881.411 425.75C857.295 430.919 831.972 440.669 807.19 450.763C782.426 460.85 758.191 471.286 736.309 477.787C714.44 484.284 694.804 486.891 679.268 481.207C648.414 469.919 633.3 451.565 614.938 436.688C605.747 429.243 595.721 422.639 582.459 418.141C569.194 413.641 552.664 411.238 530.462 412.236C486.234 414.224 468.112 442.255 450.158 467.341C441.195 479.864 432.251 491.684 420.096 499.002C407.908 506.34 392.548 509.123 370.819 503.723C349.061 498.314 337.623 487.537 331.124 474.452C324.65 461.417 323.095 446.113 321.007 431.747C318.911 417.326 316.281 403.864 307.775 394.232C299.298 384.633 284.884 378.74 258.959 379.737C206.746 381.746 162.861 351.998 131.745 315.186C100.638 278.383 82.1973 234.406 80.9404 207.761C79.6933 181.321 75.807 165.085 65.4492 142.874C55.0695 120.616 38.2149 92.4041 10.999 41.9746L11.8799 41.5ZM14.8799 17.5C42.0639 67.8703 58.9602 96.1595 69.3555 118.451C79.7724 140.789 83.6857 157.154 84.9385 183.714C86.1817 210.069 104.491 253.842 135.509 290.54C166.518 327.227 210.133 356.729 261.92 354.737C287.995 353.734 302.768 359.654 311.525 369.57C320.254 379.454 322.905 393.211 324.997 407.603C327.097 422.049 328.635 437.151 335.021 450.007C341.381 462.813 352.569 473.41 374.061 478.752C395.581 484.101 410.659 481.322 422.58 474.145C434.534 466.947 443.371 455.298 452.346 442.759C470.267 417.719 488.645 389.25 533.417 387.238C555.714 386.236 572.372 388.646 585.779 393.193C599.189 397.742 609.319 404.419 618.566 411.911C637.079 426.909 651.965 445.056 682.611 456.268C697.825 461.834 717.189 459.315 739.023 452.828C760.845 446.345 785.015 435.938 809.813 425.837C834.594 415.743 859.99 405.961 884.202 400.771C908.413 395.582 931.497 394.971 951.63 403.275C971.714 411.56 984.886 422.838 993.998 435.929C1003.1 449.01 1008.14 463.876 1011.99 479.304C1013.91 487.017 1015.54 494.883 1017.24 502.738C1018.93 510.598 1020.69 518.45 1022.87 526.156C1027.22 541.567 1033.26 556.371 1043.83 569.423C1065.03 595.611 1084.58 607.554 1098.8 612.957C1105.92 615.659 1111.7 616.729 1115.7 617.123C1117.7 617.32 1119.25 617.348 1120.3 617.328C1120.82 617.318 1121.22 617.296 1121.49 617.276C1121.62 617.267 1121.72 617.257 1121.79 617.251C1121.82 617.248 1121.84 617.245 1121.86 617.243C1121.87 617.242 1121.87 617.242 1121.87 617.241C1121.88 617.241 1121.88 617.241 1121.88 617.241C1121.88 617.242 1121.88 617.266 1121.94 617.737C1122 618.233 1122 618.233 1122 618.233H1122C1122 618.234 1121.99 618.234 1121.99 618.234C1121.99 618.235 1121.98 618.236 1121.97 618.237C1121.95 618.24 1121.92 618.242 1121.88 618.246C1121.81 618.253 1121.7 618.263 1121.56 618.273C1121.28 618.294 1120.86 618.318 1120.32 618.328C1119.23 618.349 1117.64 618.319 1115.6 618.118C1111.52 617.716 1105.65 616.628 1098.45 613.893C1084.05 608.421 1064.35 596.363 1043.05 570.052C1032.37 556.854 1026.28 541.907 1021.9 526.428C1019.72 518.689 1017.95 510.81 1016.26 502.949C1014.56 495.083 1012.94 487.239 1011.02 479.546C1007.18 464.162 1002.18 449.434 993.178 436.5C984.181 423.575 971.165 412.415 951.249 404.199C931.382 396.004 908.529 396.58 884.411 401.75C860.295 406.919 834.972 416.669 810.19 426.763C785.426 436.85 761.191 447.286 739.309 453.787C717.44 460.284 697.804 462.891 682.268 457.207C651.414 445.919 636.3 427.565 617.938 412.688C608.747 405.243 598.721 398.639 585.459 394.141C572.194 389.641 555.664 387.238 533.462 388.236C489.234 390.224 471.112 418.255 453.158 443.341C444.195 455.864 435.251 467.684 423.096 475.002C410.908 482.34 395.548 485.123 373.819 479.723C352.061 474.314 340.623 463.537 334.124 450.452C327.65 437.417 326.095 422.113 324.007 407.747C321.911 393.326 319.281 379.864 310.775 370.232C302.298 360.633 287.884 354.74 261.959 355.737C209.746 357.746 165.861 327.998 134.745 291.186C103.638 254.383 85.1973 210.406 83.9404 183.761C82.6933 157.321 78.807 141.085 68.4492 118.874C58.0695 96.6157 41.2149 68.4041 13.999 17.9746L14.8799 17.5ZM15.3799 0C42.5639 50.3703 59.4602 78.6595 69.8555 100.951C80.2724 123.289 84.1857 139.654 85.4385 166.214C86.6817 192.569 104.991 236.342 136.009 273.04C167.018 309.727 210.633 339.229 262.42 337.237C288.495 336.234 303.268 342.154 312.025 352.07C320.754 361.954 323.405 375.711 325.497 390.103C327.597 404.549 329.135 419.651 335.521 432.507C341.881 445.313 353.069 455.91 374.561 461.252C396.081 466.601 411.159 463.822 423.08 456.645C435.034 449.447 443.871 437.798 452.846 425.259C470.767 400.219 489.145 371.75 533.917 369.738C556.214 368.736 572.872 371.146 586.279 375.693C599.689 380.242 609.819 386.919 619.066 394.411C637.579 409.409 652.465 427.556 683.111 438.768C698.325 444.334 717.689 441.815 739.523 435.328C761.345 428.845 785.515 418.438 810.313 408.337C835.094 398.243 860.49 388.461 884.702 383.271C908.913 378.082 931.997 377.471 952.13 385.775C972.214 394.06 985.386 405.338 994.498 418.429C1003.6 431.51 1008.64 446.376 1012.49 461.804C1014.41 469.517 1016.04 477.383 1017.74 485.238C1019.43 493.098 1021.19 500.95 1023.37 508.656C1027.72 524.067 1033.76 538.871 1044.33 551.923C1065.53 578.111 1085.08 590.054 1099.3 595.457C1106.42 598.159 1112.2 599.229 1116.2 599.623C1118.2 599.82 1119.75 599.848 1120.8 599.828C1121.32 599.818 1121.72 599.796 1121.99 599.776C1122.12 599.767 1122.22 599.757 1122.29 599.751C1122.32 599.748 1122.34 599.745 1122.36 599.743C1122.37 599.742 1122.37 599.742 1122.37 599.741C1122.38 599.741 1122.38 599.741 1122.38 599.741C1122.38 599.742 1122.38 599.766 1122.44 600.237C1122.5 600.733 1122.5 600.733 1122.5 600.733H1122.5C1122.5 600.734 1122.49 600.734 1122.49 600.734C1122.49 600.735 1122.48 600.736 1122.47 600.737C1122.45 600.74 1122.42 600.742 1122.38 600.746C1122.31 600.753 1122.2 600.763 1122.06 600.773C1121.78 600.794 1121.36 600.818 1120.82 600.828C1119.73 600.849 1118.14 600.819 1116.1 600.618C1112.02 600.216 1106.15 599.128 1098.95 596.393C1084.55 590.921 1064.85 578.863 1043.55 552.552C1032.87 539.354 1026.78 524.407 1022.4 508.928C1020.22 501.189 1018.45 493.31 1016.76 485.449C1015.06 477.583 1013.44 469.739 1011.52 462.046C1007.68 446.662 1002.68 431.934 993.678 419C984.681 406.075 971.665 394.915 951.749 386.699C931.882 378.504 909.029 379.08 884.911 384.25C860.795 389.419 835.472 399.169 810.69 409.263C785.926 419.35 761.691 429.786 739.809 436.287C717.94 442.784 698.304 445.391 682.768 439.707C651.914 428.419 636.8 410.065 618.438 395.188C609.247 387.743 599.221 381.139 585.959 376.641C572.694 372.141 556.164 369.738 533.962 370.736C489.734 372.724 471.612 400.755 453.658 425.841C444.695 438.364 435.751 450.184 423.596 457.502C411.408 464.84 396.048 467.623 374.319 462.223C352.561 456.814 341.123 446.037 334.624 432.952C328.15 419.917 326.595 404.613 324.507 390.247C322.411 375.826 319.781 362.364 311.275 352.732C302.798 343.133 288.384 337.24 262.459 338.237C210.246 340.246 166.361 310.498 135.245 273.686C104.138 236.883 85.6973 192.906 84.4404 166.261C83.1933 139.821 79.307 123.585 68.9492 101.374C58.5695 79.1157 41.7149 50.9041 14.499 0.474609L15.3799 0Z" fill="#2E6F95"/>
</svg>
